<?xml version="1.0" encoding="utf-8"?>
<!-- Generator: Adobe Illustrator 24.0.0, SVG Export Plug-In . SVG Version: 6.00 Build 0)  -->
<svg version="1.1" id="Layer_1" xmlns="http://www.w3.org/2000/svg" xmlns:xlink="http://www.w3.org/1999/xlink" x="0px" y="0px"
	 viewBox="0 0 841.89 595.28" style="enable-background:new 0 0 841.89 595.28;" xml:space="preserve">
<style type="text/css">
	.st0{fill:#E9262A;}
	.st1{fill:#DC9827;}
	.st2{display:none;}
	.st3{display:inline;fill:#272626;}
</style>
<g>
	<g>
		<g>
			<path class="st0" d="M377.32,312.7c-2.56-0.04-4.87-0.27-6.85-2.24c-1.13-1.13-2.89-1.87-4.41-0.65
				c-1.57,1.27-0.51,3.03,0.24,4.06c5.07,6.93,9.85,14.1,15.75,20.38c1.43,1.52,3.43,2,5.51,1.84c3.27-0.25,4.18,1.55,3.91,4.4
				c-0.23,2.41-0.96,4.67-2.52,6.53c-3.58,4.24-7.75,7.74-12.83,10.1c-1.62,0.76-3.3,1.11-5.09,0.86c-2.43-0.34-2.93,0.48-1.82,2.67
				c7.33,14.45,7.28,29.96,5.36,45.36c-5.44,43.66-33.01,68.25-72.63,81.25c-16.91,5.55-32.99,1-46.71-9.83
				c-9.22-7.27-13.76-17.94-15.98-29.3c-5.92-30.4,3.84-55.96,24.82-77.82c7.84-8.17,17.14-14.43,27-19.89
				c1.06-0.59,2.66-0.96,2.62-2.35c-0.05-1.53-1.77-1.42-2.87-1.87c-10.85-4.47-21.01-10.27-31.2-16.03
				c-5.08-2.87-10.23-5.61-15.35-8.41c-0.28,0.23-0.56,0.45-0.84,0.68c2.48,6.43,5.23,12.77,8.74,18.74
				c2.82,4.8,4.06,9.84,3.57,15.37c-0.23,2.64-1.18,4.78-3.26,6.45c-1.66,1.32-3.22,2.76-4.86,4.11
				c-6.24,5.12-13.09,4.07-17.47-2.79c-7.87-12.34-14.54-25.23-17.39-40.2c-1.37,2.42-1.23,4.65-1.36,6.81
				c-0.46,7.47-0.15,14.97-1.29,22.4c-1.24,8.08-5.2,14.16-12.87,17.52c-4.51,1.98-8.95,2.21-13.17-0.67
				c-2.42-1.65-3.62-1.01-3.93,1.78c-1.07,9.94-8.53,14.48-16.18,18.54c-4.83,2.57-8.84-0.51-8.12-5.93
				c1.33-10.02,2.26-20.06,3.13-30.13c1.43-16.59-3.71-30.6-15.16-42.58c-6.41-6.71-13.48-12.57-21.02-17.93
				c-5.21-3.7-6.69-7.64-5.16-12.5c2.96-9.38,15.16-14.49,23.9-9.98c10.64,5.49,18.88,13.69,26.23,22.99
				c7.3,9.24,13.25,19.03,14.22,31.11c0.3,3.73,0.42,7.47,0.64,11.2c0.07,1.12-0.04,2.31,0.33,3.33c0.83,2.31,2.43,4.79,4.86,4.4
				c2.01-0.33,1.16-3.18,1.13-4.93c-0.07-4.49-0.23-8.98-0.55-13.46c-0.67-9.47,3.28-16.33,11.38-21.07
				c1.49-0.87,4.15-1.41,3.83-3.46c-0.25-1.62-2.85-1.6-4.43-2.19c-6.11-2.3-8.46-5.59-8.53-12.08
				c-0.2-17.78,11.91-26.56,26.35-29.37c7.12-1.38,12.97,3.53,13.97,10.76c1.72,12.43-5.26,24.66-17.79,30.8
				c-2.54,1.25-4.14,1.92-1.98,5.21c1.29,1.97,1,4.99,1.44,7.72c2.01-0.64,2.03-2.55,2.84-3.77c8.49-12.69,24.44-17.97,39.67-12.99
				c5.12,1.68,9.79,4.28,14.37,7.07c7.55,4.6,15.08,9.25,22.71,13.71c4.63,2.71,9.62,4.67,14.84,6c5.69,1.45,6.87,0.61,7.03-5.38
				c0.09-3.24,0.26-6.51-0.03-9.72c-0.73-8.28,1.64-14.38,13.36-16.53c11.91-2.18,12.96,0.22,12.42,10.58
				c-0.54,10.2-0.94,20.44-2.53,30.56c-0.49,3.15,0.7,5.04,3.66,5.95c1.87,0.57,3.73,1.15,5.95,1.84c-0.02-2.55-1.27-4.3-2.12-6.12
				c-3.69-7.88-3.87-15.57,0.85-23.16c1.64-2.63,2.64-5.63,4.67-8.06c3.01-3.59,6.52-6.18,11.49-5.92c2.53,0.14,3.07-1.08,2.34-3.25
				c-6-17.79,0.04-31.85,13.35-43.8c10.6-9.51,23.23-15.3,36.29-20.35c0.91-0.35,1.96-0.57,2.93-0.54c3.09,0.08,6.46-0.26,7.92,3.47
				c1.37,3.5,0.16,7.33-3.21,9.46c-5.05,3.2-10.26,6.14-15.36,9.27c-7.08,4.34-13.44,9.45-18.02,16.55
				c-5.38,8.34-5.23,16.61-0.09,24.94c0.52,0.84,1.14,1.64,1.83,2.35c0.77,0.79,1.63,1.75,2.86,1.45c1.38-0.33,1.23-1.72,1.44-2.77
				c5.14-25.41,25.66-45.22,51.15-49.05c13.21-1.98,26.09-0.48,38.47,4.75c2.81,1.19,5.7,2.18,9.41,3.58
				c-2.91-4.78-5.83-8.36-6.31-13.21c-1.25-12.85,6.96-27.31,19.83-34.31c9.41-5.12,19.76-7.46,30.11-9.69
				c16.57-3.56,33.39-5.67,50.12-8.31c4.41-0.7,9.03-0.64,13.41,0.38c8.78,2.05,14.19,9.84,13.85,19.69
				c-0.34,9.72-3.66,18.56-8.93,26.6c-12.24,18.67-24.59,37.27-40.77,52.91c-1.87,1.8-2.29,3.5-0.58,5.49
				c7.19,8.33,7.12,17.88,5.82,28.18c-1.82,14.47-1.6,29.11-1.17,43.7c0.07,2.21,0.39,4.42,1.99,6.27c1.08,1.25,1.48,2.95,1.27,4.59
				c-1.08,8.37-4.17,15.64-11.7,20.3c-6.04,3.74-11.65,1.33-12.7-5.67c-1.67-11.15-1.2-22.39-1.06-33.61
				c0.14-11.59,0.96-23.18,0.03-34.78c-0.52-6.52-1.86-12.61-7.37-16.91c-0.97-0.76-2-1.53-3.13-1.96
				c-3.07-1.18-4.63-0.07-4.24,3.22c0.94,7.85,0.97,15.66-0.39,23.47c-6.08,34.86-36.93,55.42-68.91,52.06
				c-17.06-1.79-33.03-6.61-46.33-17.91c-11.78-10.01-20.57-22.04-22.88-37.85c-0.89-6.07-0.6-12.19-0.61-18.3
				c0-1.03,0.65-2.5-0.74-2.97c-1.09-0.37-1.6,0.98-2.27,1.65 M260.54,423.34c-0.41,9.36,0.89,18.34,7.58,25.44
				c11.63,12.35,25.91,17.03,42.46,12.78c25.69-6.6,47.69-38.82,44.98-65.28c-2.18-21.31-13.59-35.03-33.02-39.78
				c-2.27-0.56-4.41-0.48-6.59,0.31c-7.52,2.71-14.73,6.03-21.57,10.19C273.22,379.87,261.53,398.39,260.54,423.34z M444.68,264.47
				c-2.29-0.17-5.51-0.1-8.7,0.64c-15.75,3.69-25.64,19.82-22.97,37.36c0.95,6.24,2.85,12.2,6.37,17.4
				c13.66,20.14,31.69,33.97,56.4,37.39c7.91,1.09,15.93,0.28,22.3-5.14c6.64-5.65,10.6-13.12,12.04-21.8
				c0.21-1.29,1.05-2.9-0.29-3.85c-1.3-0.93-2.55,0.33-3.78,0.86c-5.08,2.2-9.27,0.08-10.4-5.3c-1.48-6.99-0.94-13.77,3.39-19.64
				c2.64-3.58,2.03-6.25-0.43-9.56C485.39,275.03,467.3,266.5,444.68,264.47z M594.82,215.81c0.03-2.92-1.36-4.18-3.56-4.58
				c-2.21-0.41-4.46-0.53-6.69-0.13c-10.42,1.87-20.87,3.56-31.23,5.67c-12.43,2.52-25.02,4.47-37.11,8.45
				c-7.43,2.45-8.18,6.35-2.5,11.55c12.56,11.49,26.37,21.23,41.29,29.46c3.19,1.76,5.08,1.08,7.34-1.48
				c12.46-14.09,22.61-29.72,31.37-46.31C594.23,217.47,594.57,216.4,594.82,215.81z M525.44,281.86c0.59-0.16,1.55-0.42,2.51-0.68
				c1.01-0.28,2.52-0.01,2.66-1.45c0.11-1.12-1.23-1.4-2.04-1.92c-2.82-1.81-5.65-3.62-8.48-5.43c-0.58-0.37-1.07-1.23-1.88-0.6
				c-1.02,0.79-0.22,1.59,0.2,2.27c1.35,2.23,2.81,4.41,4.15,6.64C523.15,281.7,523.99,281.99,525.44,281.86z"/>
			<path class="st0" d="M717.37,252.53c-0.87-4.41-1.89-8.14-1.71-12.01c0.27-5.72,2.33-10.75,6.54-14.64
				c9.82-9.09,21.64-14.99,33.67-20.47c2.07-0.94,5.14-1.61,6.41,0.87c1.38,2.68-1.02,4.62-3.11,6.05
				c-5.13,3.53-10.34,6.95-15.52,10.4c-0.83,0.55-1.71,1.02-2.52,1.61c-8.92,6.5-9.94,10.8-4.93,20.66
				c1.75,3.43,3.77,6.73,4.4,10.64c0.9,5.57-0.41,8.45-5.29,11.09c-1.2,0.65-2.41,1.31-3.66,1.86c-1.91,0.84-2.42,2.26-2.13,4.24
				c3.86,26.97-9.41,45.91-36.41,52c-5.64,1.27-11.28,1.7-17.04,0.51c-3.26-0.67-6.27-1.52-8.46-4.23c-1.32-1.63-2.65-1.79-4.46-0.4
				c-3.39,2.6-7.19,3.52-11.17,1.32c-3.98-2.2-5.28-6.01-4.89-10.18c1.39-14.77,3.55-29.44,7.8-43.67
				c2.37-7.94,12.82-12.39,20.59-9.47c2.18,0.82,2.69,2.48,1.94,4.53c-2.86,7.79-3.4,16.05-4.87,24.12
				c-0.19,1.04-0.94,2.39,0.27,3.08c1.23,0.7,1.96-0.74,2.76-1.39c7.32-5.91,15.85-9.85,23.81-14.73c1.62-0.99,4.09-1.4,3.01-4.23
				c-0.76-1.99-4.88-3.74-6.91-3.06c-0.47,0.16-0.92,0.39-1.39,0.56c-1.85,0.68-3.69,0.92-5.16-0.75c-1.47-1.67-1.6-3.63-0.68-5.59
				c4.23-8.97,15.76-17.26,27.1-9.52C715.76,252,716.26,252.1,717.37,252.53z M710.85,290.67c0.16-2.98-0.25-5.29-0.84-7.59
				c-0.55-2.13-1.65-2.62-3.52-1.44c-2.84,1.79-5.74,3.48-8.51,5.37c-4.81,3.29-10.03,6.05-13.82,10.66
				c-1.9,2.31-3.32,4.74-1.68,7.8c1.65,3.08,4.53,3.19,7.46,2.85c3.88-0.45,7.31-2.32,10.91-3.66
				C707.58,302.15,710.81,297.19,710.85,290.67z"/>
			<path class="st0" d="M571.52,302.41c0.2-7.77,3.56-13.66,9.01-18.51c0.47-0.41,0.9-0.89,1.42-1.22
				c5.93-3.76,11.35-7.41,9.01-16.2c-0.96-3.59,1.68-7.4,3.85-10.65c11.46-17.14,25.67-31.72,41.73-44.56
				c4.67-3.74,9.39-7.42,14.67-10.28c2.57-1.39,5.6-2.94,7.67,0.16c1.94,2.91,0.35,5.83-2.11,7.91
				c-7.13,6.05-14.21,12.15-20.69,18.9c-6.13,6.39-11.99,13.01-17.58,19.87c-5.16,6.33-7.45,13.13-5.37,21.49
				c2.16,8.66-2.68,17.27-10.9,21.14c-6.25,2.94-8.19,6.65-6.14,13.27c2.83,9.15,7.36,17.37,15.01,23.48
				c1.52,1.22,1.5,2.52,0.7,3.92c-3.01,5.32-7.04,9.7-12.62,12.33c-3.63,1.71-7.41,1.18-9.9-1.94
				c-8.61-10.79-16.06-22.23-17.65-36.45C571.52,304.1,571.54,303.1,571.52,302.41z"/>
			<path class="st0" d="M645.58,278.97c-0.27,9.78-3.81,18.27-9.63,25.89c-1.99,2.6-4.46,4.67-7.62,5.83
				c-9.26,3.42-17.73-2.22-18.09-12.05c-0.58-16.24,11.43-30.12,27.55-31.84c4.07-0.43,6.33,1.19,7.35,5.18
				C645.75,274.32,645.47,276.69,645.58,278.97z"/>
			<path class="st0" d="M644.57,319.09c-0.39,10.55-8.25,17.84-18.2,16.89c-4-0.38-6.34-2.66-6.83-6.65
				c-1.24-10.15,9.29-20.61,19.44-19.32C642.95,310.53,644.78,313.5,644.57,319.09z"/>
		</g>
		<g>
			<g>
				<path class="st1" d="M235.36,237.85c0,0-13.37,5.8-21.74-5.73c-7.3-9.1-8.61-16.05-27.18-15.85
					c-3.71-0.15-16.63,2.59-22.34,18.66c-5.15,14.59-2.16,35.26,4.29,47.3c6.61,11.51,10.61,11.5,10.61,11.5
					s-11.96-10.73-7.82-49.95c0.94-4.58,4.15-17.95,18.56-19.85c11.55-0.99,14.99,6.83,18.59,12.15
					C211.54,239.63,219.77,246.28,235.36,237.85z"/>
				<g>
					<g>
						<path class="st1" d="M298.06,275.77c-7.53-2.47-11.1-4.02-24.11-2.34c0.85-1.47,4.68-7.82-6.48-9.82
							c0.98-1.73,4.5-6.11-8.6-10.11c1.18-0.79,2.78-3.89-4.58-5.02c-7.36-1.13-20.92,2.06-31.01-4.81
							c12.16,7.81,19.2,6.42,22.38,6.25c3.18-0.17,11.28-0.71,12.18,1.34c0.8,0.8-0.43,2.8-1.22,2.9c2.96,0.54,6.19,1.43,8.43,3.24
							c1.52,1.57,3.69,3.73,0.47,6.15c-3.21,2.42,0.15,0.55,2.66,1.38c2.51,0.84,6.06,1.58,5.88,3.93
							c-0.18,2.35-2.07,6.92-2.07,6.92s10.42-1.69,23.91,0.74c1.51,0.27,7.51,2.16,8.21,2.49
							C301.09,277.17,300.94,277.05,298.06,275.77z"/>
					</g>
					<g>
						<path class="st1" d="M227.36,241.04c0,0,9.72,3.99,27.67,3.33c8.73,0.53,9.86-0.8,11.1,4.68c0.22,1.53,0.54,2.34,2.26,2.6
							c1.8,0.25,6.57,2.24,5.33,7.54c-0.09,1.13,1.47,1.21,4.42,2.35c2.95,1.14,5.49,2.77,3.8,6.49c3.06,0.14,12.19,0.87,21.5,4.72
							c8.1,3.12,19.71,8.6,31.16-2.02c3.1-2.72,5.92-4.45,9.49-5.31c-3.49,0.29-8.93,0.21-19.34,5.88
							c-3.26,1.46-4.89,2.96-19.8-2.97c-14.77-5.47-18.89-2.91-18.89-2.91s1.66-7.17-8.02-7.2c-2.18,0.34-0.03-0.56-1.35-3.91
							c-1.32-3.36-2.84-4.48-6.11-4.98c0,0-0.67,0.13-1.36-2.43c-0.69-2.56,0.43-4.88-8.19-4.45
							C255.24,242.55,241.19,244.87,227.36,241.04z"/>
						<path class="st1" d="M257.91,239.25c0,0,16.38-1.7,28.27,8.39c12.96,9.95,22.67,16.67,37.35,16.76
							c14.68,0.09,17.58-1.01,20.57,1.01c-2.46-0.66-1.78-0.9-20.18-0.2c-11.37-0.13-15.27-0.59-31.2-10.96
							C283.32,247.84,278.99,239.96,257.91,239.25z"/>
					</g>
					<g>
						<path class="st1" d="M258.62,233.35c0,0,16.05-0.07,26.99,7.39c10.94,7.45,19.64,17.58,32.66,17.82
							c13.02,0.24,21.41-0.84,24.71,2.34c2.21,2.24,9.39-0.85,17.34-7.29c8.74-6.78,52.35-41.51,162.76-65.22
							c-65.26,8.37-122.31,25.49-158.47,54.16c-10.09,7.55-12.53,10.56-19.58,10.02c0,0-6.88,0.23-26.59,1.75
							c-7.98,1.09-23.59-9.52-34.39-15.88C275.76,232.91,258.62,233.35,258.62,233.35z"/>
						<path class="st1" d="M521.88,188.13c0,0-29.32-9.2-102.01,18.22c-20.88,7.75-74.71,32.9-74.71,32.9s63.16-32.91,94.22-41.94
							c-6.96-1.72-23.42-7.64-79.78,21.15c-8.26,3.83-18.76,11.83-37.09,18.03c14.58-7.19,17.94-9.17,26.5-15.46
							c7.12-5.4,18.99-9.37,26.65-12.46c-5.83,0.44-17.04,4-24.57,3.41c-7.53-0.59-19.21,1.12-30.5,13.36c0,0-5.52,5.62-9.88,6.29
							c3.81-2.9,7.01-2.9,11.9-11.16c-1.52,0.31-0.97,0.84-6.16,1.63c-5.19,0.79-6.03-1.05-18.13,7.62
							c-7.72,4.5-21.21,4.75-23.22,3.83c5.41,1.61,14.93,2.2,23.84-3.27c10.22-7.05,11.25-6.74,15.28-7.14
							c1.37-0.11,2.95-0.25,2.95-0.25s-6.74,5.64-15.76,9.81c1.05,0.65,9.74,0.94,13.69-1.93c3.46-2.2,10.31-9.7,14.48-12.12
							c3.52-3.01,12.1-5.55,17.72-5.82c5.23-0.49,6.71,1.56,16.83-1.13c-4.94,3.53-13.97,1.04-25.33,9.92
							c-7.58,6.51-19.06,13.76-26.89,15.98c4.28,1.01,10.48-0.28,14.94-1.62c4.62-1.3,26.7-12.36,33.88-16.94
							c5.13-2.59,42.11-19.78,53.67-20.95c7.83-1.42,16.2-1.13,19.01-0.52c-12.96,1.86-74.32,23.66-103.45,45.28
							c8.74,0.67,18.85-3.51,29.24-8.19C369.74,229.78,474.99,177.95,521.88,188.13z"/>
					</g>
				</g>
				<g>
					<g>
						<g>
							<path class="st1" d="M287.76,221.11c0,0,1.17-1.15,6.4,1.63c2.65,0.9,7.41,3.64,10.28-7.07c0.79-2.85,1.82-4.19,3.24-4.85
								c-2.34-0.24-3.16-1.35-9.78,1.83c1.7-1.22,7.95-3.49,7.04-10.92c-0.44-4.62,3.06-6.42,3.06-6.42s-4.74-0.6-10.59,4.4
								c2.48-3.41,3.47-5.18,7.55-8.32c3.89-3.14,6.27-5.81,3.1-12.68c-0.03,0.83-2.16,2.78-6.59,4.31
								c-4.43,1.53-8.27,1.99-9.03,10.93c-0.22-5.88-2.23-6.33,3.23-11.69c1.76-2.3,4.1-5.29,2.32-12.09
								c-0.8-2.56-0.93-3.5-0.19-5.13c-1.76-0.09-1.58,3.45-7.9,6.65c-2.39,1.18-8.48,3.5-6.7,19.03
								c-2.44-8.25-1.53-15.83,6.01-20.51c2.41-1.13,18.36-15.46-2.48-29.79c1.98,3.27,3.08,8.55-4.07,13.38
								c-7.15,4.83-23.32,19.89-3.31,38.25c1.67,1.42,5.2,4.51,5.58,6.15c0,0-0.17-2.81-5.22-7.15
								c-2.29-2.08-11.82-11.85-7.74-23.66c3.12-7.78,8.69-11.49,10.96-12.89c2.93-1.98,7.39-5.81,5.14-12.51
								c4.78,5.84,4.3,7.8,4.31,15.81c-0.62,10.33-14.64,10.15-14.11,21.22c0,0,1.33,7.64,5.87,14.49
								c-0.33-2.03-1.58-11.95,1.7-16.75c1.21-2.05,2.46-3.29,3.81-3.96c2.05-0.9,3.99-1.11,6.32-4.02
								c0.69,2.58-1.51,7.55-3.21,9.78c-1.12,2.3-8.67,7.28,0.39,19.42c0,0-1.05-7.72,2.37-10.7c5.16-4.78,9.68-3.33,12.35-6.97
								c0.1,5.29-0.51,4.2-7.11,8.68c-3.42,2.42-5.79,13.8-5.79,13.8s5.82-6.08,10.56-6.7c-1.5,1.4-3.52,1.27-3.83,6.38
								c0.01,4.75-4.82,10.62-6.43,11.43c3.58-0.8,9.02-3.92,10.26-2.68c-1.86,1.08-2.92,1.88-4.38,5.9
								c-0.76,2.68-3.4,4.41-6.3,2.95C291.96,218.58,289.48,220.21,287.76,221.11z"/>
							<path class="st1" d="M270.87,188.08c0,0,1.46,2.44,5.07,4.35s7.69,2.82,9.7,8.53c0.36-3.41,1.65-4.17,0.85-7.33
								c1.15-0.55,5.75,3.94,6.02,11.1c0.11,3.24-0.25,4.71-0.25,4.71s1.55,0.55,1.59-1.78c0,0,4,2.32,0.45,7.19
								c-3.17,4.35-5.85,4.02-6.65,5.88c0,0-0.2-1.41,2.28-3.37c2.53-1.96,4.8-6.75,4.41-7.53c-0.53,0.29-3.43,0.55-3.33-0.42
								s-0.16-11-3.26-13.02c-0.07,1.28-1.41,2.07-1.83,6.28c-1.96-3.09-3.12-4.26-6.34-5.21
								C275.92,196.5,273.67,196.7,270.87,188.08z"/>
							<path class="st1" d="M263.77,225.64c6.7-2,5.85-10.72,4.55-11.67s-1.49,0.94-2.51,2.47c-2.58-5.63,3.05-11.8,8-6.64
								c4.95,5.17,3.9,10.39,3.9,10.39s1.61-2.17,0.18-5.43c-2.93-5.01-0.45-7.23-0.45-7.23s-0.17,2.4,2.05,3.83
								c3.05,2.21,2.3,3.83,2.95,4.37c0.88-1.31,0.1-2.31-1.95-4.89s-2-6.13-2-6.13s0.78,1.74,4.32,3.96
								c2.75,1.72,2.75,4.37,3.33,5.14c-0.85-6.44-0.62-4.2-9.75-11.76c-7.88-6.52-6.29-13.75-6.29-13.75s0.24,8.2,8,14.02
								c7.76,5.82,9.38,5.84,8.52,13.96c-0.98-1.44-2.2-5.49-4.64-6.42c-2.34-1.03-2.93-3.88-2.93-3.88s-0.07,2.38,1.92,4.67
								s3.52,4.47,1.06,7.72c0,0-0.1-3.39-2.36-4.67c-1.39-0.7-2.54-2.67-2.55-4.85c-0.21,0.72-0.95,2.32,1.15,5.75
								c2.43,3.96-1.68,9.47-2.74,10.33c-0.02-0.28,1.73-6.29-1.96-13.04c0,0-1.8-3.76-5.1-2.93c-1.1,0.32-2.97,2.39-2.4,5.89
								c0.29-1.14,0.95-2.32,2.33-1.47C269.96,214.35,272.23,223.1,263.77,225.64z"/>
							<path class="st1" d="M320.87,219.14c0,0,4.5-5.33,14.58-7.58c7.35-1.56,11.17-3.12,5.43-11.04c2.77-0.92,4.81-2.73,3.47-9.89
								c-3.13,3.26-3.45,3.12-9.67,3.41c-2.28-0.24-3.49,2.86-3.49,2.86s-2.81-7.86,5.25-8.88c-1.45,0.89-0.94,4.05,2.99,3.18
								s7.65-3.78,2.82-9.25c-0.69-0.75-0.1-1.56,2.56-1.94c2.7-0.57,4.78,0.45,5.94-9.81c-1.57,1.5-3.22,3.09-13.15,3.58
								c-7.45,0.24-14.22-0.83-19.24,7.5c9.18-15.23,6.73-16.54,13.65-18.42c2.08-0.1,3.01-0.28,3.72,0.24
								c0.71,0.52,0.92,1.72,0.1,2.11c-0.83,0.39-6.67,3.76,3.6,5.84c4.87,0.63,12.16,1.84,14.78-8.89c0.91-3-1.5-7.92,2.17-13.24
								c-2.39,1.7-4.17,2.51-16.72,2.52c-7.22,0.21-20.58,2.78-28.75,21.31c2.41-8.56,6.03-15.91,18.49-20.74
								c4.73-2.01,12.38-1.7,12.38-1.7s17.04,1.72,20.92-9.03c1.86-7.11-0.2-17.17,6.25-17.63c0,0-6.42-3.39-11.73,8.62
								c-4.89,7.95-11.01,10.02-23.13,10.68c-5.21,0.14-17.54,0.34-23.86,10.91c5.55-7.79,8.37-11.65,19.95-12.42
								c11.59-0.78,17.02-1.04,22.65-7.45c3.97-4.54,5.19-11.73,13.32-12.23c0,0,9.08,1.05,7.28-13.25
								c-1.19,4.14-0.79,5.88-5.1,6.34c-4.31,0.46-17.56-1.43-20.19,11.06c-1.15,3.29,1.29,7.67-26.28,11.05
								c-5.02,0.94-11.8,6.18-11.8,6.18s4.33-6.2,16.62-8.33c12.29-2.13,23.62-5.9,17.95-13.84c-3.8-4.63-1.19-9-1.19-9
								s-7.42,0.59-5.1,9.22c0.88,1.87-0.7,5.27-12.21,6.12c-9.33,0.82-19.16-0.47-24.92,13.97c-1.63,4.03-3.28,6.98-4.61,7.32
								c0,0,3.65-0.25,7.25-9.63c1.92-4.16,5.4-10.12,21.35-10.57c7.84-0.33,15.74-1.86,14.3-7.89c0,0-2.33-5.15,2.2-7.24
								c0,0-2.11,2.03-0.61,6.21c0.06,0.17,1.58,4.33,0.12,6.65c-1.46,1.97-5.8,5.15-21.6,5.66c-15.8,0.5-11.97,17.42-11.97,17.42
								s1.46-4.54,6.56-7.8c4.92-3.14,7.44-3.54,10.4-3.82c4.03-0.37,19.2-2.12,23.05-7.82c1.71-1.81,1.21-7.52,4.93-10.39
								c0,0,3.17-3.03,9.2-3.2c6.03-0.17,8.39,0.07,9.89-1.52c-1.13,2.55-0.04,3.64-8.67,4.92c-3.75,0.48-8.1,2.06-11.5,8.71
								c-2.86,4.63-7.27,9.36-18.34,9.82c-9.34,0.62-21.96,2.23-25.79,18.98c1.45-1.54,9.6-10.99,17.51-12.47
								c7.9-1.48,10.21-0.57,18.23-1.94c9.73-2.09,13.37-7.58,14.15-9.3c1.89-3.66,4.84-9.3,8.88-9.39c0,0-3.51,0.56-4.49,6.22
								c-0.99,5.66-3.45,12.54-9.16,13.72c-11.73,4.59-24.87-1.09-37.54,11.21c-8.46,9.54-4.86,18.67-4.54,20.68
								c0,0,4.74-9.32,7.18-12.34c3.98-4.75,8.6-10.01,19.45-10.85c6.82-0.96,10.02,0.76,15.23-0.97c0,0-3.59,0.91-2.98,8.21
								c0.48,3.81,1.97,10.13-10.01,7.87c-1.65-0.4-0.76-2.76,1.06-3.73c3.93-2.09-3.37-7.46-9.86-5.69
								c-3.96,1.08-7.45,4.02-8.22,7.6c-1.22,5.82-6.11,17.62-11.04,25.15c0,0,11.95-14.69,20.33-16.23
								c3.01-0.26,3.6-0.55,9.25-0.56s8.3-1.9,8.3-1.9s-5,3.83-10.01,5.24c-5.01,1.41-0.63,3.92,0.22,5.37
								c0.85,1.44,5.12,4.53,0.16,5.8c-1.17,0.12-4.02,0.28-1.61-2.99c-0.99,0.23-6.88,1.63-7.98,7.25
								c-0.27,3.24,1.63,5.07,1.63,5.07s0.83-3.21,2.85-3.57c2.02-0.36,5.9,1.62,8.48-0.94c0.48,1.56-0.22,2.41-4.14,4.22
								c-0.82,0.61-2.18,2.37-1.21,3.5c0.96,1.12,4.78,2.86,2.5,5.53C338.74,210.06,322.52,212.45,320.87,219.14z"/>
							<path class="st1" d="M320.59,217.78c0,0,3.23-2.86,4.01-10.45c0.78-7.58-3.76-6.34-3.41-9.48c-1.76,1.52-3.81,2.32-2.56,8.22
								c0,0,1.12,3.62-0.85,5.38c-0.2-0.01,1.52-2.62-1.55-11.44c-2.42-6.71,3.74-9.02,3.74-9.02s-9.38,1.36-12.46,7.25
								c-2.38,4.56,0.27,8.12,0.74,10c0,0,2.19,4.12-5.19,13.32c5.17-4.47,7.12-8.63,6.06-14.88c-2.11-6.31-1.55-9.65,5.85-13.35
								c-1.63,1.5-2.55,3.12-1.31,7.66c1.25,4.54,3.59,11.27,2.1,14.64c2.78-3.12,4.57-3.7,3.3-11.21
								c-0.38-2.13-0.16-4.04,1.53-5.32c-0.35,4.75,2.67,2.38,2.66,7.1C322.92,211.35,320.59,217.78,320.59,217.78z"/>
						</g>
						<path class="st1" d="M228.14,229.35c0,0,2.88,0.72,1.87,3.29c-1,2.57-5.56,1.4-8.18,0.34c-2.61-1.06-4.42-1.72-8.12-8.92
							c-3.1-5.56-7.32-8.56-11.01-9.93c-4.19-1.8-10.45-2.28-16.35-1.8c6.24-1.9,12.36-3.37,18.26,0.65
							c3.85,2.63,17.15,11.33,22.12,5.82c0.44-0.3,0.88-1.69-0.89-1.36c-1.49,0.29-2.07,1.32-10.33-4.68
							c-5.11-3.35-8.83-5.2-15.42-5.69c5.38-0.07,8.65,0.12,17.42,5.62c5.34,3.65,4.82,3.34,6.34,3.33
							c0.61-0.08,1.48-0.83,0.24-1.13c-0.86-0.41-1.71-1.78-3.38-3.66c-2.46-2.83-7.1-5.6-12.36-6.59c5.19-0.1,8.6,1.83,11.19,4.5
							c0.91,0.41-2.77-5.93-9.7-6.42c-4.74-0.1-7.95,1.08-4.03,2.56c5.9,1.36,11.85,4.1,13.17,5.71c1.7,1.37,2.17,2.91,4.06,4.04
							c-1.81-0.32-4.64-3.41-7.38-5.29c-2.09-1.02-10.08-5.39-18.44-3.2c-0.72,0.33-0.9,1.4,0.04,1.42
							c0.94,0.02,10.69,0.27,20.88,8.3c4.15,2.56,5.84,2.34,6.87,2.28c-1.99,0.57-5.42,0.86-17.02-5.99
							c-6.86-3.79-12.61-6.19-25.18,0.25c-0.54,0.4,13.29,0.57,16.25,2.1c3.87,1.89,7.46,2.43,10.76,7.7
							c3.42,5.45,8.24,14.94,16.09,14.8c5.46,0.58,7.83-1.7,7.54-3.95C232.47,230.8,230.77,229.49,228.14,229.35z"/>
						<path class="st1" d="M232.96,227.49c0,0,9.43,5.11,12.93,3.23c3.1-1.67,8.78-3.36,12.87-2.87c-4.5-1.74-7.72-1.99-8.09-4.9
							c0.21-0.6,1.47,2.2,6.68-0.89c3.71-2.29,4.42-3.53,5.25-14.8c0.22-2.33,1.73-3.97,4.5-3.95c-2.22-0.71-7.07,0.18-8.09,2.89
							c0,0-4.86,11.53-11.39,13.2c-3.93,1.37-11.94,1.11-13.69-1.14c3.69-0.24,12.27-0.68,14.41-8.78c0,0-11.13,8.11-20.35,3.58
							c-2.76-1.53-1.92-1.47-1.92-1.47s8.01,3.21,14.47,0.04c6.52-3.46,7.13-7.31,7.13-7.31s-12.21,5.68-21.23,3.03
							c-4.98-1.27-6.67-6.36-18.98-8.95c-7.28-0.97,4.9-1.32,14.75,3.58c6.29,2.88,15.83,5.01,25.04-1.23
							c4.77-3.76,6.69-6.68,7.92-14.03c-0.05-0.98-1.14,1.52-4.55,1.67c-1.04,0.04-0.09-1.07,3.36-3.69s0.2-8.5-3.47-14.7
							c1.21,4.9,1.54,7.23-5.34,10.56c0,0-1.19,0.15-1.28,1.72s-1.74,9.97-16.29,14.24c-7.16,1.42-10.25-2.86-21.97-0.74
							c6.05,0.48,12.77,2.15,17.4,2.57c7.27,0.65,16.53-2.98,20.38-9.4c2.18-3.81,1.95-6.31,3.09-7.08
							c1.14-0.77,5.88-3.62,5.32-8.27c1.88,4.57,4.38,8.69-2.12,13.01c-2.27,1.96-1.57,3.06-0.63,3.32c0.94,0.26,3.26,0.1,4.52-1.16
							c-0.88,2.45-2.2,9.58-12.89,13.21c-2.76,0.79-8.09,2.92-18.42-1.94c-5.18-2.07-12.12-4.46-18.66-2.67
							c-0.36,0.19-1.42,0.85,4.47,2.14c5.82,1.67,9.34,3.63,12.17,6.31s7.62,8.07,24.43,0.8c-2.27,1.63-7.47,8.02-21.31,2.99
							c0.26,0.92,1.72,5.28,7.68,6.37c5.93,0.86,10.58-0.91,15.48-3.97c-2.29,2.58-6.8,5.08-15.27,5.56c0.27,1,3.75,5.8,11.85,4.99
							c8.1-0.81,13.28-6.48,16.4-13.37c1.39-4,2.16-4.18,3.63-4.9c-1.3,1.41-1.32,1.88-2.53,8.45c-1.04,4.52-0.83,7.18-6.28,8.95
							c0,0-1.72,1.05-4.45-0.51c-0.93,0.17-2.23,3.4,0.75,4.87c2.02,0.99,3.15,0.95,3.15,0.95s-5.84-0.33-8.19,1.41
							C244.92,228.78,245.26,231.44,232.96,227.49z"/>
						<path class="st1" d="M237.41,177.43c-0.24,1.89-5.11,10.53-16.2,14.25c-0.28,0.23,3.55,1.58,6.75,0.15
							c3.2-1.43,8.02-3.25,13.9-14.7c0,1.14,1.52,4.06-1.38,7.42c-1.73,1.62-5.89,5.47-7.63,7.15c-1.05,0.77-4.08,2.88-10.49,1.99
							c-5.17-1.11-7.53-2.14-16.73,0.44c0,0,8.56-1.93,16.72,0.45c4.54,0.47,8.89,0.42,12.9-3.83c4.01-4.25,7.86-5.78,7.96-10.44
							c0.1-4.65-0.74-6.69-2.7-4.17c-1.46,2.48-5.37,14.05-16.15,15.48c-0.44-0.17,11.43-3.59,14.56-14.91c0,0,0.43-1.18-0.7-1.54
							c-1.13-0.36-3.69,9.82-18.83,14.2c-6.28,1.57-8.68,1.25-15.17,4.38c3.89-0.98,8.11-1.94,15.79-3.71
							C220.01,190.05,232.28,186.57,237.41,177.43z"/>
						<path class="st1" d="M222.69,176.99c1.34-0.91,2.85-4.48,2.27-5.63c-0.52-1.05-0.19-1.16-0.27-2.58
							c-0.37,0.52-0.57,0.54-0.93,1.96c-0.35,1.37-0.3,3.26-1.72,3.82c0,0,1.02-0.19,1.17-2.66c0.1-2.05,1.26-3.52,1.92-3.73
							c0.01,0.89,0.14,2.25,0.53,2.72c0.75,0.91-0.06,3.19-1.7,5.28c0,0,1.7-0.9,2.17-1.04s0.62-0.38,0.87-0.22
							c-0.26,0.22-0.53,1.75-0.9,2.71c-0.66,1.79-1.39,3.04-5.08,4.36c-3.26,1.17-9.4-0.16-9.4-0.16s7.28,0.96,9.46-0.25
							c3.36-1.86,4.41-4.31,4.72-5.92C224.96,175.88,223.2,176.98,222.69,176.99z"/>
						<g>
							<path class="st1" d="M170.1,152.06c0.38-5.33,5.68-5.57,7.92-6.24c2.49-0.27,2.39-4.23,1.24-8.51
								c-2.04-13.29,2.54-8.88,6.81-13.45c-3.76,8.02-0.68,8.64,3.35,13.75c4.61,6.54,1.13,11.52,0.38,12.98
								c4.3,0.29,3.34-3.88,2.72-7.54c-1.69-10.46,3.63-12.97,8.04-13.4c5.15-0.99,3.85-5.48,3.31-7.24
								c-5.88-14.21,2.67-15.59,4.3-16.84c5.19-3.46-0.51-13.34-0.51-13.34c12.66,10.63,7.48,16.18,5.6,18.8
								c-2.95,3.28-2.99,4.35-2.59,5.53c0.03-1.65,3.51-3.86,4.59-4.53c1.87-1.04,1.09-2.94,1.3-3.87
								c7.58,11.51,2.6,13.34,0.54,19.36c-0.58,2.23,0.07,2.19,0.48,2.39c1.35,0.44,1.46-1.45,1.99-3.78
								c1.29-3.78,6.29-3.77,7.58-4.1c-2.38,2.57-3.34,6.33-2.92,12.09c0.18,8.63-1.27,11.35-4.83,12.86
								c-6.29,3.11-6.67,5.1-6.66,9.34c0.45-4.27,2.16-5.57,3.14-6.29c3.36-1.93,7.75-0.59,7.57,0.35
								c-4.47,2.21-2.97,4.96-1.46,6.56c3.24,3.42,3.55,4.64,2.66,6.86c1.31-0.05,1.37-2.36,1.48-3.59
								c0.72-8.03,7.44-9.62,8.55-10.63c-0.9,2.67-0.91,2.77,0.07,4.47c3.98,5.39,2.41,9.14,0.97,11.39
								c1.86-0.77,3.19-0.66,2.68,0.81c-1.26,2.36-1.05,4.28-2.41,7.86c-6.48,12.91-16.96,13.3-29.83,13.85
								c-15.19,0.06-33.26,10.22-35.09,11c-2.2,0.7-2.19-0.96-1.23-1.15c4.74-2.04,7.21-11.51,6.33-8.93
								c-0.88,2.58-2.81,4.62-6.68,7.51c-7.74,5.86-11.15,3.83-11.15,3.83c13.4-8.28,12.45-15.67,11.37-18.52
								c-1.17-2.86-5.43-2.96-6.99-3.61c2.63-3.89,7.83-2.62,9.11-1.5c0.1-2.21-2.67-2.01-6.93-5.37
								c-5.33-4.12-1.59-12.93-1.02-15.68s-3.89-5.29-3.89-5.29c11.73,1.62,8.46,9.99,11.64,10.91c0,0-1.47,1.91-3.51-4.34
								c-1-2.25-2.68-4.36-5.62-5.47c1.42,1.08,3.03,2.52,2.83,5.54c-0.5,2.39-4.57,8.9,0.2,13.35c1.73,1.55,3.5,2.68,5.2,3.44
								c1.7,0.76,2.69,3.53,1.65,4.58c-0.35-0.35-3.23-2.67-7.09-1.11c3.94,1.29,7.88,2.51,6.09,9.73s-8.47,11.14-9.19,11.71
								c7.37-4.02,11.29-5.12,15.89-14.37c0,0-0.87,9.66-5.87,13.01c2.34-1.17,15.57-10.15,29.07-11.7
								c6.54-0.94,17.69,1.64,25.47-3.31c7.73-5.28,7.81-6.28,9.41-13.15c0.14-0.74,0.61-1.69,0.85-2.05
								c0.25-0.38-0.23-0.9-1.38-0.53s-2.9,1.01-2.9,1.01s2.49-3.6,2.68-5.19c0.19-1.6,0.41-4.13-2.15-7.55
								c-0.96-1.46-0.35-3.21,0.35-3.94c-1.24,0.81-5.47,4.38-5.86,9.59c0.09,3.52-1.39,5.73-3.19,5.63
								c-2.4-0.12,0.11-1.95-1.28-4.82c-0.87-1.95-4.58-4.86-4.74-7.28c-0.16-2.42,1.09-2.96,2.69-3.69
								c-0.88-0.26-5.61,0.41-7.08,5.47c-1.14,4.55-1.55,4.55-1.55,4.55s-2.27-4.68-1.17-8.09c1.1-3.42,4.41-4.91,6.19-6.16
								s4.42-2.63,4.71-7.4s-0.32-6.75,0.06-8.83c0.38-2.08,2.12-5.77,3.28-6.81c0,0-3.98,0.39-5.23,3.72
								c-1.25,3.33-0.5,5.99-3.85,5.54c-3.36-0.45-0.39-7.67-0.39-7.67s3.33-4.85,2.18-9.45c-0.84-3.35-1.4-5.02-1.4-5.02
								s0.42,3.49-0.79,4.01c-1.68,0.88-4.82,2.07-4.93,5.72c0,0-3.49-2.89-2.93-5.47c0.56-2.59,3.73-3.61,4.87-5.72
								c1.14-2.11,2.85-3.75-0.04-8.94c-2.21-2.92-3.43-4.68-3.43-4.68s3.32,6.38,2.14,8.93c-0.95,2.48-2.32,2.58-6.21,5.14
								c0,0-2.96,2.3-1.92,7.62c1.04,5.32,3.82,8.4,2.1,12.01c-1.1,2.75-3.93,2.02-6.66,2.73c-1.55,0.37-4.94,1.75-5.36,5.17
								s-0.32,6.21,0.42,8.94s-0.45,8.08-6.46,6.53c-0.96-0.24,2.83-3.67,2.31-8.09c-0.63-3.22-0.89-4.23-4.14-7.46
								c-3.26-3.24-3.45-7.1-1.53-10.44c-0.79,0.25-3.22,1.63-3.45,4.23c-0.16,1.73-0.54,4.26,0.36,8.39
								c0.9,4.13,0.89,7.39-1.23,8.03S172.95,146.21,170.1,152.06z"/>
							<path class="st1" d="M171.82,183.33c0,0,5.98-0.78,11.48,1.45c4.38,1.61,6.72,2.39,10.92-0.72c4.2-3.11,5.55-4.26,6.21-3.62
								c-0.11,1.19-1.26,3.08,0.16,3.35s6.46-0.29,15.42-5.49c5.48-3.18,6.59-7.15,6.98-10.09c0.07-1.45,0.44-5.77-3.73-9.2
								c-1.37-1.17-1.98-3.54-1.8-5.39c-1.43,0.83-3.51,3.85-2.77,8.74c0.28,2.09,1.84,3.82,0.91,5.7c0,0,1.45-0.95-0.47-5.68
								c0,0-1-3.64,1.25-7c0,0-0.46,3.22,2.93,5.94c2.91,2.84,2.39,9.36,1.32,11.28c-0.52,0.94-3.31,6.2-17.22,10.33
								c0,0-2.67,1.14-2.92,0.28c-0.26-0.85,0.51-3.35,1.66-4.46c0.06-0.42-3.08-0.24-6.42,2.49s-4,5.43-9.8,3.92
								C175.76,181.29,171.82,183.33,171.82,183.33z"/>
							<path class="st1" d="M227.15,172.08c2.78-1.91,5.88-9.36,4.66-11.76c-1.1-2.18-0.4-2.41-0.59-5.37
								c-0.77,1.08-1.18,1.13-1.92,4.1c-0.71,2.85-0.34,6.65-3.7,7.98c0,0,2.29-0.41,2.56-5.57c0.19-4.27,2.59-7.35,3.96-7.8
								c0.03,1.86,0.31,4.69,1.13,5.66c1.57,1.88-0.09,6.64-3.48,11.02c0,0,3.53-1.9,4.5-2.19c0.98-0.29,1.29-0.79,1.82-0.47
								c-0.55,0.46-1.66,2.92-2.41,4.94c-1.83,3.6-2.01,5.44-8.64,9.33c-6.22,3.65-17.39,1.5-17.39,1.5s11.12,0.85,15.73-1.53
								c8.17-4.23,9.61-9.32,10.23-12.66C231.86,169.74,228.23,172.05,227.15,172.08z"/>
							<path class="st1" d="M208.72,127.13c0,0,0.11,5.75-5.4,6.39c-5.5,0.65-7.92,0.5-7.84,5.79s2.5,12.6-2.81,13.58
								c5.67-0.45,7-9.3,12.62-9.37c4.9,1,4.64,0.66,6.92-2.48c0.51,3.04-1.11,7.42-2.24,8.72c-1.13,1.29-6.95,1.97-5.99-3.13
								c-1.12,0.47-2.89,0.44-5.05,6.83c-1.79,5.1-3.3,7.9-5.57,5.61s-1.19-2.29,0.21-3.81c0.86-1.06-1.21-0.31-3.07,0.53
								s-10.24,2.58-12.67,8.27c-1.92,3.98-2.69,5.05-3.79,5.88c-1.1,0.82,2.98,0.49,4.26,2.45c1.28,1.95,2.28,2.8,2.28,2.8
								s0.8,0.95,0.58-2.22c-0.23-3.18,0.44-7.72,4.7-10.05c-2.29,0.82-6.42,2.94-5.79,9.07c-0.03,0.75-0.39,0.52-2.15-1.69
								c-0.94-0.81-2.52-0.54-2.52-0.54s2.46-3.03,3.5-6.17c0.72-1.6,5.35-5.84,12.43-7.24c-0.83,0.75,0.27,1.99,1.19,3.02
								c0.92,1.03,4.46,3.19,5.8,1.03s2.55-12.59,4.83-12.23c0,0,1.39,5.25,5.63,3.8c3.25-0.97,5.56-9.06,3.6-15
								c0,0-2.1,4.73-5.34,5.22s-5.67,0.81-7.36,3.71c-0.49,0.68-2.34,3.46-3.03,3.46c0.28-2.41-1.68-12.72,0.44-13.38
								C199.2,135.28,209.72,135.8,208.72,127.13z"/>
							<path class="st1" d="M170.34,166.98c-1.53,2.33,1.81,7.06,1.81,7.06s-2.01-1.97-2.91-3.67c-1.52-3.4,3.01-6.38,2.89-11.42
								c-0.21-4.82-2.94-6.44-2.94-6.44s3.67-2.22,6.13,1.3c2.46,3.52,0.94,6.27,0.94,6.27s1.65,0.02,1.14-6.46
								c0.04-4.17,0.23-5.29,3.79-5.73c1.64-0.33,2.63-1.93,1.81-8.58c0.15-1.7-0.99-4.74-0.99-4.74s1.48,2.45,2.98,3.53
								c3.8,2.77,4.4,6.09,3.06,10.99l-0.93,2.66c0,0,1.61-7.75-2.34-12.08c0.01,0.95,0.86,9.48-3.61,9.55
								c-1.05,0.1-2.91,0.21-2.72,5.21c-0.45,4.67-0.54,6.75-3.13,6.99c-0.59-0.81,0.7-7.97-4.06-8.36
								C172.23,153.53,174.74,160.26,170.34,166.98z"/>
						</g>
						<g>
							<path class="st1" d="M185.37,168.14c-1.73,1.97-1.53,4.96,0.44,6.69c1.97,1.73,4.96,1.53,6.69-0.44
								c1.73-1.97,1.53-4.96-0.44-6.69C190.09,165.98,187.1,166.17,185.37,168.14z M190.76,171.33c-0.29,0.33-1.33-0.12-2.33-1
								c-1-0.88-1.58-1.85-1.29-2.18c0.29-0.33,1.33,0.12,2.33,1C190.47,170.02,191.04,171,190.76,171.33z"/>
						</g>
					</g>
					<g class="st2">
						<path class="st3" d="M150.13,208.27c-0.4,0.25-0.61,0.6-0.92,0.34c-0.34-0.29-0.43-0.81-0.45-1.28
							c-0.01-0.19-0.33-0.6,0.23-0.59c0.03,0.04,0.05,0.07,0.08,0.11c0.03-0.06,0.05-0.11,0.08-0.17c0.04-0.48-0.14-0.99,0.14-1.46
							c0.34-0.01,0.29,0.41,0.54,0.49c0.04-0.02,0.11-0.05,0.11-0.07c0-1.19,0.83-2,1.41-3.06c0.07,0.41,0.11,0.73,0.17,1.04
							c0.02,0.12,0.06,0.27,0.22,0.28c0.17,0.01,0.22-0.15,0.23-0.26c0.12-1.07,0.63-1.84,1.52-2.49c0.89-0.66,1.59-1.57,2.39-2.35
							c0.19-0.18,0.41-0.52,0.71-0.33c0.24,0.16,0.01,0.48-0.01,0.73c-0.01,0.1-0.03,0.2-0.07,0.5c0.67-0.84,1.25-1.53,1.78-2.24
							c1.16-1.56,1.7,1,3.58,0.57c2.26-0.52-0.77,0.98,1.48,0.42c0.14-0.04,0.41-0.14,0.41,0.03c0.01,1.05,7.22-4.16,7.45-4.22
							c0.73-0.19,0.89,0.5,1.85-0.46c0.29-0.58,1.94-2.06,2.12-2.17c0.92-0.59,1.92-1.07,2.69-1.86c0.33-0.33,0.42-0.14,0.47,0.18
							c0.09,0.56,0.01,1.09-0.28,1.58c-0.15,0.26-0.4,0.47-0.36,0.87c0.43-0.01,0.75-0.26,1.06-0.44c1.87-1.11,3.93-1.35,5.96-0.84
							c0.83,0.21,1.59,0.01,2.37,0.15c0.15,0.03,0.31,0.02,0.47,0.05c0.33,0.07,0.8,0.16,0.82,0.49c0.03,0.37-0.47,0.27-0.73,0.4
							c-0.07,0.03-0.13,0.07-0.21,0.11c0.28,0.32,0.64,0.19,0.95,0.19c1.86,0.01,3.73-0.02,5.42,0.88c2.14,1.13,4.14,2.51,6.14,3.88
							c0.28,0.19,0.67,0.48,0.01,0.65c-2.73,0.7-5.3,1.92-8.07,2.47c-2.71,0.54-5.34,0.48-7.79-1.02c-0.25-0.15-0.52-0.33-0.89-0.27
							c1.47,1.65,3.42,2.19,5.69,2.37c-0.46,0.41-0.81,0.39-1.12,0.45c-2.13,0.38-4.25,0.77-6.33,1.39
							c-1.72,0.51-3.48,0.59-5.21-0.14c-0.92-0.39-1.91-0.62-2.9-0.83c1.31,0.86,2.78,1.29,4.29,1.66c1.52,0.37,3.09-0.33,4.69,0.19
							c-0.3,0.37-0.65,0.39-0.95,0.48c-1.7,0.5-3.37,1.06-4.95,1.9c-1.28,0.68-2.71,0.74-4.12,0.71c-2.33-0.04-4.62-0.37-6.8-1.28
							c-0.85-0.35-1.72-0.51-2.65-0.13c0.95,0.25,1.9,0.48,2.84,0.75c0.95,0.28,1.87,0.63,2.6,1.39c-1.13-0.17-2.22-0.58-3.38-0.61
							c0.46,0.39,1.12,0.32,1.67,0.82c-1.76-0.15-3.38-0.6-5.25-0.39c0.78,0.52,1.47,0.66,2.14,0.91c-1.26,0.04-2.5-0.11-3.85,0.02
							c0.55,0.44,1.14,0.15,1.62,0.38c-0.45,0.4-0.69,0.47-3.01,0.63c-1.05,0.08-2.11,0.08-3.28,0.13c0.46,0.38,1,0.34,1.4,0.62
							c-1.27,0.72-4.35,0.52-5.73-0.34c-0.09-0.24-0.01-0.48,0.17-0.59c0.28-0.17,0.74-0.52,0.74-0.52
							c7.74-6.42,16.7-10.21,26.46-12.26c3.66-0.77,7.4-0.8,11.12-0.98c0.22-0.01,0.51,0.11,0.69-0.15c-0.21-0.2-0.45-0.2-0.68-0.23
							c-2-0.22-4-0.36-6-0.21c-6.66,0.53-13.13,1.83-19.32,4.47c-4.65,1.98-8.73,4.84-12.76,7.8L150.13,208.27z M150.58,207.95
							l0.01-0.01"/>
						<path class="st3" d="M150.59,207.95"/>
						<path class="st3" d="M148.3,209.7c0.16-0.45,0.42-0.65,0.83-0.34c0.05,0.06,0.13,0.17,0.21,0.14
							c0.09-0.04,0.06-0.06-0.03-0.22c0,0-0.23-0.27,1.9-1.56c0.51-0.36,1.03-0.71,1.52-1.08c7.4-5.6,15.7-9.07,24.89-10.41
							c0.26-0.04,0.55-0.19,0.82,0.04c-0.17,0.23-0.42,0.2-0.64,0.24c-1.61,0.33-3.24,0.57-4.82,0.99
							c-8.15,2.19-15.51,5.88-21.81,11.57l-0.82,0.75c-0.18,0.16-0.56,0.26-0.3,0.61c0.25,0.33-0.11,0.62-0.46,0.7
							C149.58,211.12,148.51,209.97,148.3,209.7z"/>
						<path class="st3" d="M149.54,211.17c-0.75,0.96-1.52,1.97-1.76,3.22c-0.04,0.21-0.23,0.39-0.45,0.38
							c-1.38-0.05-2.53,0.66-3.8,1.11c-0.01-0.24,0.37-0.53-0.14-0.63c-0.18-0.03-0.07-0.26,0.01-0.4c0.56-0.91,1-1.87,1.08-2.96
							c0.02-0.24,0.12-0.5,0.38-0.54c1.3-0.2,2.34-0.93,3.4-1.63L149.54,211.17z M143.8,215.21c0.22,0.11,0.31-0.05,0.43-0.13
							c0.75-0.52,1.23-1.42,2.25-1.6c0.23-0.04,0.31-0.34,0.25-0.6c-0.06-0.25-0.22-0.41-0.48-0.45c-0.26-0.03-0.53,0.07-0.57,0.31
							c-0.11,0.65-0.62,0.99-1.01,1.42C144.37,214.51,143.94,214.74,143.8,215.21z"/>
					</g>
					<path class="st1" d="M171.34,193.44l-8.7,4.89c0,0,2.07-1.52,3.46-2.82c-1.53,0.08-1.68,0.24-1.68,0.24s-3.96,3.31-5.98,4.5
						c1.11,0.32,3.95,1.68,12.77-5.22C173.59,193.07,171.34,193.44,171.34,193.44z"/>
				</g>
			</g>
			<g>
				<path class="st1" d="M150.35,209.28c-0.01,0.21-0.58,0.71,0.19,0.71c0.18,0,0.47-0.15,0.53-0.31c0.1-0.25,0.07-0.56,0.08-0.8
					C150.57,208.63,150.37,208.95,150.35,209.28z"/>
				<path class="st1" d="M138.65,122.49c-0.21,0.93-0.92,1.37-2.02,1.97c0.39-0.89,0.65-1.49,0.91-2.08
					c2.16-14.28-4-26.66-11.74-31.17c0.08,1.55-0.03,3,0.26,4.36c1.71,7.86-0.65,14.63-5.25,20.91c-2.64,3.61-4.5,7.61-5.21,12.08
					c-0.05,0.49-0.06,1.39-0.15,1.4c-1.04,0.09-0.94-0.86-1.21-1.48c-0.71-0.92-0.97-2.31-2.88-2.72
					c1.06,7.07-1.61,12.85-4.55,18.57c-5.87,11.42-5.22,16.25,3.39,25.64c0.11,0.11,0.02,0.4,0.04,0.96
					c-4.14-1.22-6.82-4.33-10.25-7.6c-1.79,14.18,1.51,26.03,10.77,36.27c-3.55-0.62-5.83-2.53-9.01-5.13
					c3.25,6.53,4.03,12.5,4.04,18.67c0.02,9.35,2.81,13,11.78,16.12c0.24,0.22,0.48,0.45,0.72,0.67c-0.26,0.17-0.53,0.34-0.79,0.5
					c-1.12,0.79-2.46,1.36-2.9,2.88c4.71-1.21,9.91,0.66,13.62,4.9c-1.69,1.11-4.11,1.41-4.5,4.02c2.09-0.6,4.1-1.59,6.48-1.03
					c-0.98,1.52-3.36,1.49-3.71,3.66c4.98-1.68,9.23-0.26,13.03,2.92c3.8,3.17,6.26,7.3,8.18,11.78c1.34,3.12,2.7,6.24,4.75,8.96
					c1.55,2.06,4.39,4.43,8.28,7.91c-3.56-6.5-3.25-7.71-3.44-9.99c-0.28-3.29-0.33-6.46-4.72-7.18c-1.52-0.25-2.26-2.02-3-3.43
					c-6.99-13.42-13.51-27.06-18.57-41.34c-5.51-15.54-9.75-31.38-9.63-48.07c-0.46-8.07,1.17-15.82,3.61-23.48
					c-1.19,8.22-2.14,16.44-2.04,24.75c2.09,26.7,11.73,51,23.64,74.61c0.24-0.14,0.58-0.22,0.65-0.39c0.17-0.47,0.36-1,0.3-1.48
					c-0.67-5.7-0.84-11.22,3.97-15.58c1.2-1.09-0.38-2.84,0.28-4.24c-1.4-0.62-2.14,0.55-3.07,1.15c-0.52,0.33-0.85,1.03-1.66,0.66
					c-0.74-2.78,1.1-4.23,2.87-5.87c3.35-3.11,5.66-6.68,4.11-12.21c-0.66,1.26-0.97,1.96-1.38,2.59c-0.38,0.59-0.4,1.61-2.36,1.35
					c3.67-12.19-2.06-23.41-3.26-35.13c-0.56-0.02-0.77-0.08-0.81-0.03c-0.62,0.98-1.21,1.97-1.81,2.96
					c0.1,0.73-0.25,1.16-0.91,1.39c-0.04-0.45-0.08-0.9-0.13-1.35c0.77-9.33,1.07-18.62-2.49-27.84c-0.76,1.28-1.47,2.46-2.18,3.65
					c-0.31,0.59-0.22,1.76-1.08,1.59c-1.12-0.22-0.23-1.13-0.19-1.74c0.86-4.96,4.66-9.63,1.6-15.64c-1.32,3-1.21,5.92-3.56,8.04
					c-1.05-4.64,0.45-8.51,2.22-12.29c1.61-3.43,3.22-6.85,3.8-10.63c0.23-1.52,0.78-3.35-1.54-4.16
					C139.69,119.03,139.58,120.87,138.65,122.49z M157.84,272.94c0.25,0.31-8.01-6.64-8.5-12.24
					C150.49,262.76,153.71,267.77,157.84,272.94z M151.15,208.88c-0.02,0.24,0.02,0.55-0.08,0.8c-0.06,0.15-0.34,0.31-0.53,0.31
					c-0.77,0.01-0.21-0.49-0.19-0.71C150.37,208.95,150.57,208.63,151.15,208.88z"/>
			</g>
		</g>
	</g>
</g>
</svg>
